# xmcd
#
# Track frame offsets:
#	150
#	12772
#	26550
#	46230
#	62757
#	76420
#	90552
#	102977
#	115252
#	130010
#
# Disc length: 1891 seconds
#
# Revision: 4
# Processed by: cddbd v1.5.2PL0 Copyright (c) Steve Scherf et al.
# Submitted via: audiograbber 1.83.01
#
DISCID=7307610a
DTITLE=House, James - James House
DYEAR=1989
DGENRE=Country
TTITLE0=Don't quit me now
TTITLE1=It's cruel
TTITLE2=Hard times for an honest man
TTITLE3=Under the harvest moon
TTITLE4=Never until now
TTITLE5=Oh what a thrill
TTITLE6=Lucinda
TTITLE7=That'll be the last thing
TTITLE8=Call it in the air
TTITLE9=Born ready
EXTD=
EXTT0=
EXTT1=
EXTT2=
EXTT3=
EXTT4=
EXTT5=
EXTT6=
EXTT7=
EXTT8=
EXTT9=
PLAYORDER=
